<?xml version="1.0" encoding="UTF-8" standalone="no"?>
<!DOCTYPE svg PUBLIC "-//W3C//DTD SVG 1.1//EN"
 "http://www.w3.org/Graphics/SVG/1.1/DTD/svg11.dtd">
<!-- Generated by graphviz version 2.47.0 (20210316.0004)
 -->
<!-- Title: dependencies Pages: 1 -->
<svg width="560pt" height="284pt"
 viewBox="0.00 0.00 560.00 284.00" xmlns="http://www.w3.org/2000/svg" xmlns:xlink="http://www.w3.org/1999/xlink">
<g id="graph0" class="graph" transform="scale(1 1) rotate(0) translate(4 280)">
<title>dependencies</title>
<polygon fill="white" stroke="transparent" points="-4,4 -4,-280 556,-280 556,4 -4,4"/>
<text text-anchor="start" x="255.01" y="-42.4" font-family="Times-12" font-weight="bold" font-size="14.00">Legend</text>
<polygon fill="#ffffb3" stroke="transparent" points="42,-10 42,-30 62,-30 62,-10 42,-10"/>
<text text-anchor="start" x="65.63" y="-15.4" font-family="Times-12" font-size="14.00"> &#160;Declarations</text>
<polygon fill="#8dd3c7" stroke="transparent" points="155,-10 155,-30 175,-30 175,-10 155,-10"/>
<text text-anchor="start" x="178.73" y="-15.4" font-family="Times-12" font-size="14.00"> &#160;Module</text>
<polygon fill="#80b1d3" stroke="transparent" points="241,-10 241,-30 261,-30 261,-10 241,-10"/>
<text text-anchor="start" x="264.78" y="-15.4" font-family="Times-12" font-size="14.00"> &#160;Bootstrap</text>
<polygon fill="#fdb462" stroke="transparent" points="338,-10 338,-30 358,-30 358,-10 338,-10"/>
<text text-anchor="start" x="361.67" y="-15.4" font-family="Times-12" font-size="14.00"> &#160;Providers</text>
<polygon fill="#fb8072" stroke="transparent" points="434,-10 434,-30 454,-30 454,-10 434,-10"/>
<text text-anchor="start" x="457.73" y="-15.4" font-family="Times-12" font-size="14.00"> &#160;Exports</text>
<g id="clust1" class="cluster">
<title>cluster_ViewsModule</title>
<polygon fill="none" stroke="black" stroke-dasharray="1,5" points="8,-70 8,-268 544,-268 544,-70 8,-70"/>
</g>
<g id="clust2" class="cluster">
<title>cluster_ViewsModule_declarations</title>
<polygon fill="none" stroke="black" points="180,-78 180,-130 536,-130 536,-78 180,-78"/>
</g>
<g id="clust6" class="cluster">
<title>cluster_ViewsModule_exports</title>
<polygon fill="none" stroke="black" points="95,-208 95,-260 457,-260 457,-208 95,-208"/>
</g>
<g id="clust5" class="cluster">
<title>cluster_ViewsModule_imports</title>
<polygon fill="none" stroke="black" points="16,-78 16,-130 172,-130 172,-78 16,-78"/>
</g>
<!-- ViewUserEditComponent -->
<g id="node1" class="node">
<title>ViewUserEditComponent</title>
<polygon fill="#ffffb3" stroke="black" points="527.91,-122 366.09,-122 366.09,-86 527.91,-86 527.91,-122"/>
<text text-anchor="middle" x="447" y="-99.8" font-family="Times,serif" font-size="14.00">ViewUserEditComponent</text>
</g>
<!-- ViewsModule -->
<g id="node3" class="node">
<title>ViewsModule</title>
<polygon fill="#8dd3c7" stroke="black" points="315.81,-187 312.81,-191 291.81,-191 288.81,-187 220.19,-187 220.19,-151 315.81,-151 315.81,-187"/>
<text text-anchor="middle" x="268" y="-164.8" font-family="Times,serif" font-size="14.00">ViewsModule</text>
</g>
<!-- ViewUserEditComponent&#45;&gt;ViewsModule -->
<g id="edge1" class="edge">
<title>ViewUserEditComponent&#45;&gt;ViewsModule</title>
<path fill="none" stroke="black" d="M407.88,-122.11C407.88,-141.34 407.88,-169 407.88,-169 407.88,-169 325.75,-169 325.75,-169"/>
<polygon fill="black" stroke="black" points="325.75,-165.5 315.75,-169 325.75,-172.5 325.75,-165.5"/>
</g>
<!-- ViewUserListComponent -->
<g id="node2" class="node">
<title>ViewUserListComponent</title>
<polygon fill="#ffffb3" stroke="black" points="347.86,-122 188.14,-122 188.14,-86 347.86,-86 347.86,-122"/>
<text text-anchor="middle" x="268" y="-99.8" font-family="Times,serif" font-size="14.00">ViewUserListComponent</text>
</g>
<!-- ViewUserListComponent&#45;&gt;ViewsModule -->
<g id="edge2" class="edge">
<title>ViewUserListComponent&#45;&gt;ViewsModule</title>
<path fill="none" stroke="black" d="M268,-122.11C268,-122.11 268,-140.99 268,-140.99"/>
<polygon fill="black" stroke="black" points="264.5,-140.99 268,-150.99 271.5,-140.99 264.5,-140.99"/>
</g>
<!-- ViewUserEditComponent  -->
<g id="node5" class="node">
<title>ViewUserEditComponent </title>
<polygon fill="#fb8072" stroke="black" points="449.41,-252 284.59,-252 284.59,-216 449.41,-216 449.41,-252"/>
<text text-anchor="middle" x="367" y="-229.8" font-family="Times,serif" font-size="14.00">ViewUserEditComponent </text>
</g>
<!-- ViewsModule&#45;&gt;ViewUserEditComponent  -->
<g id="edge4" class="edge">
<title>ViewsModule&#45;&gt;ViewUserEditComponent </title>
<path fill="none" stroke="black" stroke-dasharray="5,2" d="M300.1,-187.11C300.1,-187.11 300.1,-205.99 300.1,-205.99"/>
<polygon fill="black" stroke="black" points="296.6,-205.99 300.1,-215.99 303.6,-205.99 296.6,-205.99"/>
</g>
<!-- ViewUserListComponent  -->
<g id="node6" class="node">
<title>ViewUserListComponent </title>
<polygon fill="#fb8072" stroke="black" points="266.86,-252 103.14,-252 103.14,-216 266.86,-216 266.86,-252"/>
<text text-anchor="middle" x="185" y="-229.8" font-family="Times,serif" font-size="14.00">ViewUserListComponent </text>
</g>
<!-- ViewsModule&#45;&gt;ViewUserListComponent  -->
<g id="edge5" class="edge">
<title>ViewsModule&#45;&gt;ViewUserListComponent </title>
<path fill="none" stroke="black" stroke-dasharray="5,2" d="M243.51,-187.11C243.51,-187.11 243.51,-205.99 243.51,-205.99"/>
<polygon fill="black" stroke="black" points="240.01,-205.99 243.51,-215.99 247.01,-205.99 240.01,-205.99"/>
</g>
<!-- ViewsRoutingModule -->
<g id="node4" class="node">
<title>ViewsRoutingModule</title>
<polygon fill="#8dd3c7" stroke="black" points="164.43,-122 161.43,-126 140.43,-126 137.43,-122 23.57,-122 23.57,-86 164.43,-86 164.43,-122"/>
<text text-anchor="middle" x="94" y="-99.8" font-family="Times,serif" font-size="14.00">ViewsRoutingModule</text>
</g>
<!-- ViewsRoutingModule&#45;&gt;ViewsModule -->
<g id="edge3" class="edge">
<title>ViewsRoutingModule&#45;&gt;ViewsModule</title>
<path fill="none" stroke="black" d="M133.77,-122.11C133.77,-141.34 133.77,-169 133.77,-169 133.77,-169 210.3,-169 210.3,-169"/>
<polygon fill="black" stroke="black" points="210.3,-172.5 220.3,-169 210.3,-165.5 210.3,-172.5"/>
</g>
</g>
</svg>
