<?xml version="1.0" encoding="UTF-8" standalone="no"?>
<!DOCTYPE svg PUBLIC "-//W3C//DTD SVG 1.1//EN"
 "http://www.w3.org/Graphics/SVG/1.1/DTD/svg11.dtd">
<!-- Generated by graphviz version 2.47.0 (20210316.0004)
 -->
<!-- Title: dependencies Pages: 1 -->
<svg width="776pt" height="284pt"
 viewBox="0.00 0.00 776.00 284.00" xmlns="http://www.w3.org/2000/svg" xmlns:xlink="http://www.w3.org/1999/xlink">
<g id="graph0" class="graph" transform="scale(1 1) rotate(0) translate(4 280)">
<title>dependencies</title>
<polygon fill="white" stroke="transparent" points="-4,4 -4,-280 772,-280 772,4 -4,4"/>
<text text-anchor="start" x="363.01" y="-42.4" font-family="Times-12" font-weight="bold" font-size="14.00">Legend</text>
<polygon fill="#ffffb3" stroke="transparent" points="150,-10 150,-30 170,-30 170,-10 150,-10"/>
<text text-anchor="start" x="173.63" y="-15.4" font-family="Times-12" font-size="14.00"> &#160;Declarations</text>
<polygon fill="#8dd3c7" stroke="transparent" points="263,-10 263,-30 283,-30 283,-10 263,-10"/>
<text text-anchor="start" x="286.73" y="-15.4" font-family="Times-12" font-size="14.00"> &#160;Module</text>
<polygon fill="#80b1d3" stroke="transparent" points="349,-10 349,-30 369,-30 369,-10 349,-10"/>
<text text-anchor="start" x="372.78" y="-15.4" font-family="Times-12" font-size="14.00"> &#160;Bootstrap</text>
<polygon fill="#fdb462" stroke="transparent" points="446,-10 446,-30 466,-30 466,-10 446,-10"/>
<text text-anchor="start" x="469.67" y="-15.4" font-family="Times-12" font-size="14.00"> &#160;Providers</text>
<polygon fill="#fb8072" stroke="transparent" points="542,-10 542,-30 562,-30 562,-10 542,-10"/>
<text text-anchor="start" x="565.73" y="-15.4" font-family="Times-12" font-size="14.00"> &#160;Exports</text>
<g id="clust1" class="cluster">
<title>cluster_FeatUserModule</title>
<polygon fill="none" stroke="black" stroke-dasharray="1,5" points="8,-70 8,-268 760,-268 760,-70 8,-70"/>
</g>
<g id="clust6" class="cluster">
<title>cluster_FeatUserModule_imports</title>
<polygon fill="none" stroke="black" points="580,-78 580,-130 752,-130 752,-78 580,-78"/>
</g>
<g id="clust2" class="cluster">
<title>cluster_FeatUserModule_declarations</title>
<polygon fill="none" stroke="black" points="16,-78 16,-130 572,-130 572,-78 16,-78"/>
</g>
<g id="clust7" class="cluster">
<title>cluster_FeatUserModule_exports</title>
<polygon fill="none" stroke="black" points="101,-208 101,-260 667,-260 667,-208 101,-208"/>
</g>
<!-- FeatUserCreationComponent -->
<g id="node1" class="node">
<title>FeatUserCreationComponent</title>
<polygon fill="#ffffb3" stroke="black" points="564.07,-122 383.93,-122 383.93,-86 564.07,-86 564.07,-122"/>
<text text-anchor="middle" x="474" y="-99.8" font-family="Times,serif" font-size="14.00">FeatUserCreationComponent</text>
</g>
<!-- FeatUserModule -->
<g id="node4" class="node">
<title>FeatUserModule</title>
<polygon fill="#8dd3c7" stroke="black" points="434.08,-187 431.08,-191 410.08,-191 407.08,-187 323.92,-187 323.92,-151 434.08,-151 434.08,-187"/>
<text text-anchor="middle" x="379" y="-164.8" font-family="Times,serif" font-size="14.00">FeatUserModule</text>
</g>
<!-- FeatUserCreationComponent&#45;&gt;FeatUserModule -->
<g id="edge1" class="edge">
<title>FeatUserCreationComponent&#45;&gt;FeatUserModule</title>
<path fill="none" stroke="black" d="M409,-122.11C409,-122.11 409,-140.99 409,-140.99"/>
<polygon fill="black" stroke="black" points="405.5,-140.99 409,-150.99 412.5,-140.99 405.5,-140.99"/>
</g>
<!-- FeatUserListComponent -->
<g id="node2" class="node">
<title>FeatUserListComponent</title>
<polygon fill="#ffffb3" stroke="black" points="365.64,-122 212.36,-122 212.36,-86 365.64,-86 365.64,-122"/>
<text text-anchor="middle" x="289" y="-99.8" font-family="Times,serif" font-size="14.00">FeatUserListComponent</text>
</g>
<!-- FeatUserListComponent&#45;&gt;FeatUserModule -->
<g id="edge2" class="edge">
<title>FeatUserListComponent&#45;&gt;FeatUserModule</title>
<path fill="none" stroke="black" d="M344.89,-122.11C344.89,-122.11 344.89,-140.99 344.89,-140.99"/>
<polygon fill="black" stroke="black" points="341.39,-140.99 344.89,-150.99 348.39,-140.99 341.39,-140.99"/>
</g>
<!-- FeatUserSearchComponent -->
<g id="node3" class="node">
<title>FeatUserSearchComponent</title>
<polygon fill="#ffffb3" stroke="black" points="193.95,-122 24.05,-122 24.05,-86 193.95,-86 193.95,-122"/>
<text text-anchor="middle" x="109" y="-99.8" font-family="Times,serif" font-size="14.00">FeatUserSearchComponent</text>
</g>
<!-- FeatUserSearchComponent&#45;&gt;FeatUserModule -->
<g id="edge3" class="edge">
<title>FeatUserSearchComponent&#45;&gt;FeatUserModule</title>
<path fill="none" stroke="black" d="M151.62,-122.02C151.62,-139.37 151.62,-163 151.62,-163 151.62,-163 313.96,-163 313.96,-163"/>
<polygon fill="black" stroke="black" points="313.96,-166.5 323.96,-163 313.96,-159.5 313.96,-166.5"/>
</g>
<!-- FeatUserCreationComponent  -->
<g id="node6" class="node">
<title>FeatUserCreationComponent </title>
<polygon fill="#fb8072" stroke="black" points="658.57,-252 475.43,-252 475.43,-216 658.57,-216 658.57,-252"/>
<text text-anchor="middle" x="567" y="-229.8" font-family="Times,serif" font-size="14.00">FeatUserCreationComponent </text>
</g>
<!-- FeatUserModule&#45;&gt;FeatUserCreationComponent  -->
<g id="edge5" class="edge">
<title>FeatUserModule&#45;&gt;FeatUserCreationComponent </title>
<path fill="none" stroke="black" stroke-dasharray="5,2" d="M434.18,-175C473.57,-175 519.62,-175 519.62,-175 519.62,-175 519.62,-205.98 519.62,-205.98"/>
<polygon fill="black" stroke="black" points="516.13,-205.98 519.62,-215.98 523.13,-205.98 516.13,-205.98"/>
</g>
<!-- FeatUserListComponent  -->
<g id="node7" class="node">
<title>FeatUserListComponent </title>
<polygon fill="#fb8072" stroke="black" points="457.64,-252 300.36,-252 300.36,-216 457.64,-216 457.64,-252"/>
<text text-anchor="middle" x="379" y="-229.8" font-family="Times,serif" font-size="14.00">FeatUserListComponent </text>
</g>
<!-- FeatUserModule&#45;&gt;FeatUserListComponent  -->
<g id="edge6" class="edge">
<title>FeatUserModule&#45;&gt;FeatUserListComponent </title>
<path fill="none" stroke="black" stroke-dasharray="5,2" d="M379,-187.11C379,-187.11 379,-205.99 379,-205.99"/>
<polygon fill="black" stroke="black" points="375.5,-205.99 379,-215.99 382.5,-205.99 375.5,-205.99"/>
</g>
<!-- FeatUserSearchComponent  -->
<g id="node8" class="node">
<title>FeatUserSearchComponent </title>
<polygon fill="#fb8072" stroke="black" points="282.95,-252 109.05,-252 109.05,-216 282.95,-216 282.95,-252"/>
<text text-anchor="middle" x="196" y="-229.8" font-family="Times,serif" font-size="14.00">FeatUserSearchComponent </text>
</g>
<!-- FeatUserModule&#45;&gt;FeatUserSearchComponent  -->
<g id="edge7" class="edge">
<title>FeatUserModule&#45;&gt;FeatUserSearchComponent </title>
<path fill="none" stroke="black" stroke-dasharray="5,2" d="M323.59,-175C287.64,-175 247.45,-175 247.45,-175 247.45,-175 247.45,-205.98 247.45,-205.98"/>
<polygon fill="black" stroke="black" points="243.95,-205.98 247.45,-215.98 250.95,-205.98 243.95,-205.98"/>
</g>
<!-- FeatUserRoutingModule -->
<g id="node5" class="node">
<title>FeatUserRoutingModule</title>
<polygon fill="#8dd3c7" stroke="black" points="743.7,-122 740.7,-126 719.7,-126 716.7,-122 588.3,-122 588.3,-86 743.7,-86 743.7,-122"/>
<text text-anchor="middle" x="666" y="-99.8" font-family="Times,serif" font-size="14.00">FeatUserRoutingModule</text>
</g>
<!-- FeatUserRoutingModule&#45;&gt;FeatUserModule -->
<g id="edge4" class="edge">
<title>FeatUserRoutingModule&#45;&gt;FeatUserModule</title>
<path fill="none" stroke="black" d="M623.59,-122.02C623.59,-139.37 623.59,-163 623.59,-163 623.59,-163 444.2,-163 444.2,-163"/>
<polygon fill="black" stroke="black" points="444.2,-159.5 434.2,-163 444.2,-166.5 444.2,-159.5"/>
</g>
</g>
</svg>
