<?xml version="1.0" encoding="UTF-8" standalone="no"?>
<!DOCTYPE svg PUBLIC "-//W3C//DTD SVG 1.1//EN"
 "http://www.w3.org/Graphics/SVG/1.1/DTD/svg11.dtd">
<!-- Generated by graphviz version 2.47.0 (20210316.0004)
 -->
<!-- Title: dependencies Pages: 1 -->
<svg width="1618pt" height="284pt"
 viewBox="0.00 0.00 1618.00 284.00" xmlns="http://www.w3.org/2000/svg" xmlns:xlink="http://www.w3.org/1999/xlink">
<g id="graph0" class="graph" transform="scale(1 1) rotate(0) translate(4 280)">
<title>dependencies</title>
<polygon fill="white" stroke="transparent" points="-4,4 -4,-280 1614,-280 1614,4 -4,4"/>
<text text-anchor="start" x="784.01" y="-42.4" font-family="Times-12" font-weight="bold" font-size="14.00">Legend</text>
<polygon fill="#ffffb3" stroke="transparent" points="571,-10 571,-30 591,-30 591,-10 571,-10"/>
<text text-anchor="start" x="594.63" y="-15.4" font-family="Times-12" font-size="14.00"> &#160;Declarations</text>
<polygon fill="#8dd3c7" stroke="transparent" points="684,-10 684,-30 704,-30 704,-10 684,-10"/>
<text text-anchor="start" x="707.73" y="-15.4" font-family="Times-12" font-size="14.00"> &#160;Module</text>
<polygon fill="#80b1d3" stroke="transparent" points="770,-10 770,-30 790,-30 790,-10 770,-10"/>
<text text-anchor="start" x="793.78" y="-15.4" font-family="Times-12" font-size="14.00"> &#160;Bootstrap</text>
<polygon fill="#fdb462" stroke="transparent" points="867,-10 867,-30 887,-30 887,-10 867,-10"/>
<text text-anchor="start" x="890.67" y="-15.4" font-family="Times-12" font-size="14.00"> &#160;Providers</text>
<polygon fill="#fb8072" stroke="transparent" points="963,-10 963,-30 983,-30 983,-10 963,-10"/>
<text text-anchor="start" x="986.73" y="-15.4" font-family="Times-12" font-size="14.00"> &#160;Exports</text>
<g id="clust1" class="cluster">
<title>cluster_AppModule</title>
<polygon fill="none" stroke="black" stroke-dasharray="1,5" points="8,-70 8,-268 298,-268 298,-70 8,-70"/>
</g>
<g id="clust2" class="cluster">
<title>cluster_AppModule_declarations</title>
<polygon fill="none" stroke="black" points="168,-78 168,-130 290,-130 290,-78 168,-78"/>
</g>
<g id="clust4" class="cluster">
<title>cluster_AppModule_imports</title>
<polygon fill="none" stroke="black" points="16,-78 16,-130 160,-130 160,-78 16,-78"/>
</g>
<g id="clust6" class="cluster">
<title>cluster_AppModule_bootstrap</title>
<polygon fill="none" stroke="black" points="96,-208 96,-260 220,-260 220,-208 96,-208"/>
</g>
<g id="clust20" class="cluster">
<title>cluster_FeatUserModule</title>
<polygon fill="none" stroke="black" stroke-dasharray="1,5" points="306,-70 306,-268 1058,-268 1058,-70 306,-70"/>
</g>
<g id="clust21" class="cluster">
<title>cluster_FeatUserModule_declarations</title>
<polygon fill="none" stroke="black" points="494,-78 494,-130 1050,-130 1050,-78 494,-78"/>
</g>
<g id="clust25" class="cluster">
<title>cluster_FeatUserModule_imports</title>
<polygon fill="none" stroke="black" points="314,-78 314,-130 486,-130 486,-78 314,-78"/>
</g>
<g id="clust26" class="cluster">
<title>cluster_FeatUserModule_exports</title>
<polygon fill="none" stroke="black" points="399,-208 399,-260 965,-260 965,-208 399,-208"/>
</g>
<g id="clust35" class="cluster">
<title>cluster_ViewsModule</title>
<polygon fill="none" stroke="black" stroke-dasharray="1,5" points="1066,-70 1066,-268 1602,-268 1602,-70 1066,-70"/>
</g>
<g id="clust36" class="cluster">
<title>cluster_ViewsModule_declarations</title>
<polygon fill="none" stroke="black" points="1238,-78 1238,-130 1594,-130 1594,-78 1238,-78"/>
</g>
<g id="clust39" class="cluster">
<title>cluster_ViewsModule_imports</title>
<polygon fill="none" stroke="black" points="1074,-78 1074,-130 1230,-130 1230,-78 1074,-78"/>
</g>
<g id="clust40" class="cluster">
<title>cluster_ViewsModule_exports</title>
<polygon fill="none" stroke="black" points="1153,-208 1153,-260 1515,-260 1515,-208 1153,-208"/>
</g>
<!-- AppComponent -->
<g id="node1" class="node">
<title>AppComponent</title>
<polygon fill="#ffffb3" stroke="black" points="281.94,-122 176.06,-122 176.06,-86 281.94,-86 281.94,-122"/>
<text text-anchor="middle" x="229" y="-99.8" font-family="Times,serif" font-size="14.00">AppComponent</text>
</g>
<!-- AppModule -->
<g id="node2" class="node">
<title>AppModule</title>
<polygon fill="#8dd3c7" stroke="black" points="199.66,-187 196.66,-191 175.66,-191 172.66,-187 116.34,-187 116.34,-151 199.66,-151 199.66,-187"/>
<text text-anchor="middle" x="158" y="-164.8" font-family="Times,serif" font-size="14.00">AppModule</text>
</g>
<!-- AppComponent&#45;&gt;AppModule -->
<g id="edge1" class="edge">
<title>AppComponent&#45;&gt;AppModule</title>
<path fill="none" stroke="black" d="M188.05,-122.11C188.05,-122.11 188.05,-140.99 188.05,-140.99"/>
<polygon fill="black" stroke="black" points="184.55,-140.99 188.05,-150.99 191.55,-140.99 184.55,-140.99"/>
</g>
<!-- AppComponent  -->
<g id="node4" class="node">
<title>AppComponent </title>
<polygon fill="#80b1d3" stroke="black" points="212.44,-252 103.56,-252 103.56,-216 212.44,-216 212.44,-252"/>
<text text-anchor="middle" x="158" y="-229.8" font-family="Times,serif" font-size="14.00">AppComponent </text>
</g>
<!-- AppModule&#45;&gt;AppComponent  -->
<g id="edge3" class="edge">
<title>AppModule&#45;&gt;AppComponent </title>
<path fill="none" stroke="black" stroke-dasharray="1,5" d="M158,-187.11C158,-187.11 158,-205.99 158,-205.99"/>
<polygon fill="black" stroke="black" points="154.5,-205.99 158,-215.99 161.5,-205.99 154.5,-205.99"/>
</g>
<!-- AppRoutingModule -->
<g id="node3" class="node">
<title>AppRoutingModule</title>
<polygon fill="#8dd3c7" stroke="black" points="152.27,-122 149.27,-126 128.27,-126 125.27,-122 23.73,-122 23.73,-86 152.27,-86 152.27,-122"/>
<text text-anchor="middle" x="88" y="-99.8" font-family="Times,serif" font-size="14.00">AppRoutingModule</text>
</g>
<!-- AppRoutingModule&#45;&gt;AppModule -->
<g id="edge2" class="edge">
<title>AppRoutingModule&#45;&gt;AppModule</title>
<path fill="none" stroke="black" d="M134.28,-122.11C134.28,-122.11 134.28,-140.99 134.28,-140.99"/>
<polygon fill="black" stroke="black" points="130.78,-140.99 134.28,-150.99 137.78,-140.99 130.78,-140.99"/>
</g>
<!-- FeatUserCreationComponent -->
<g id="node5" class="node">
<title>FeatUserCreationComponent</title>
<polygon fill="#ffffb3" stroke="black" points="1042.07,-122 861.93,-122 861.93,-86 1042.07,-86 1042.07,-122"/>
<text text-anchor="middle" x="952" y="-99.8" font-family="Times,serif" font-size="14.00">FeatUserCreationComponent</text>
</g>
<!-- FeatUserModule -->
<g id="node8" class="node">
<title>FeatUserModule</title>
<polygon fill="#8dd3c7" stroke="black" points="732.08,-187 729.08,-191 708.08,-191 705.08,-187 621.92,-187 621.92,-151 732.08,-151 732.08,-187"/>
<text text-anchor="middle" x="677" y="-164.8" font-family="Times,serif" font-size="14.00">FeatUserModule</text>
</g>
<!-- FeatUserCreationComponent&#45;&gt;FeatUserModule -->
<g id="edge4" class="edge">
<title>FeatUserCreationComponent&#45;&gt;FeatUserModule</title>
<path fill="none" stroke="black" d="M909.38,-122.03C909.38,-138.4 909.38,-160 909.38,-160 909.38,-160 742.07,-160 742.07,-160"/>
<polygon fill="black" stroke="black" points="742.07,-156.5 732.07,-160 742.07,-163.5 742.07,-156.5"/>
</g>
<!-- FeatUserListComponent -->
<g id="node6" class="node">
<title>FeatUserListComponent</title>
<polygon fill="#ffffb3" stroke="black" points="843.64,-122 690.36,-122 690.36,-86 843.64,-86 843.64,-122"/>
<text text-anchor="middle" x="767" y="-99.8" font-family="Times,serif" font-size="14.00">FeatUserListComponent</text>
</g>
<!-- FeatUserListComponent&#45;&gt;FeatUserModule -->
<g id="edge5" class="edge">
<title>FeatUserListComponent&#45;&gt;FeatUserModule</title>
<path fill="none" stroke="black" d="M711.11,-122.11C711.11,-122.11 711.11,-140.99 711.11,-140.99"/>
<polygon fill="black" stroke="black" points="707.61,-140.99 711.11,-150.99 714.61,-140.99 707.61,-140.99"/>
</g>
<!-- FeatUserSearchComponent -->
<g id="node7" class="node">
<title>FeatUserSearchComponent</title>
<polygon fill="#ffffb3" stroke="black" points="671.95,-122 502.05,-122 502.05,-86 671.95,-86 671.95,-122"/>
<text text-anchor="middle" x="587" y="-99.8" font-family="Times,serif" font-size="14.00">FeatUserSearchComponent</text>
</g>
<!-- FeatUserSearchComponent&#45;&gt;FeatUserModule -->
<g id="edge6" class="edge">
<title>FeatUserSearchComponent&#45;&gt;FeatUserModule</title>
<path fill="none" stroke="black" d="M646.97,-122.11C646.97,-122.11 646.97,-140.99 646.97,-140.99"/>
<polygon fill="black" stroke="black" points="643.47,-140.99 646.97,-150.99 650.47,-140.99 643.47,-140.99"/>
</g>
<!-- FeatUserCreationComponent  -->
<g id="node10" class="node">
<title>FeatUserCreationComponent </title>
<polygon fill="#fb8072" stroke="black" points="956.57,-252 773.43,-252 773.43,-216 956.57,-216 956.57,-252"/>
<text text-anchor="middle" x="865" y="-229.8" font-family="Times,serif" font-size="14.00">FeatUserCreationComponent </text>
</g>
<!-- FeatUserModule&#45;&gt;FeatUserCreationComponent  -->
<g id="edge8" class="edge">
<title>FeatUserModule&#45;&gt;FeatUserCreationComponent </title>
<path fill="none" stroke="black" stroke-dasharray="5,2" d="M732.39,-169C768.34,-169 808.52,-169 808.52,-169 808.52,-169 808.52,-205.89 808.52,-205.89"/>
<polygon fill="black" stroke="black" points="805.02,-205.89 808.52,-215.89 812.02,-205.89 805.02,-205.89"/>
</g>
<!-- FeatUserListComponent  -->
<g id="node11" class="node">
<title>FeatUserListComponent </title>
<polygon fill="#fb8072" stroke="black" points="755.64,-252 598.36,-252 598.36,-216 755.64,-216 755.64,-252"/>
<text text-anchor="middle" x="677" y="-229.8" font-family="Times,serif" font-size="14.00">FeatUserListComponent </text>
</g>
<!-- FeatUserModule&#45;&gt;FeatUserListComponent  -->
<g id="edge9" class="edge">
<title>FeatUserModule&#45;&gt;FeatUserListComponent </title>
<path fill="none" stroke="black" stroke-dasharray="5,2" d="M677,-187.11C677,-187.11 677,-205.99 677,-205.99"/>
<polygon fill="black" stroke="black" points="673.5,-205.99 677,-215.99 680.5,-205.99 673.5,-205.99"/>
</g>
<!-- FeatUserSearchComponent  -->
<g id="node12" class="node">
<title>FeatUserSearchComponent </title>
<polygon fill="#fb8072" stroke="black" points="580.95,-252 407.05,-252 407.05,-216 580.95,-216 580.95,-252"/>
<text text-anchor="middle" x="494" y="-229.8" font-family="Times,serif" font-size="14.00">FeatUserSearchComponent </text>
</g>
<!-- FeatUserModule&#45;&gt;FeatUserSearchComponent  -->
<g id="edge10" class="edge">
<title>FeatUserModule&#45;&gt;FeatUserSearchComponent </title>
<path fill="none" stroke="black" stroke-dasharray="5,2" d="M621.84,-175C584.29,-175 541.38,-175 541.38,-175 541.38,-175 541.38,-205.98 541.38,-205.98"/>
<polygon fill="black" stroke="black" points="537.88,-205.98 541.38,-215.98 544.88,-205.98 537.88,-205.98"/>
</g>
<!-- FeatUserRoutingModule -->
<g id="node9" class="node">
<title>FeatUserRoutingModule</title>
<polygon fill="#8dd3c7" stroke="black" points="477.7,-122 474.7,-126 453.7,-126 450.7,-122 322.3,-122 322.3,-86 477.7,-86 477.7,-122"/>
<text text-anchor="middle" x="400" y="-99.8" font-family="Times,serif" font-size="14.00">FeatUserRoutingModule</text>
</g>
<!-- FeatUserRoutingModule&#45;&gt;FeatUserModule -->
<g id="edge7" class="edge">
<title>FeatUserRoutingModule&#45;&gt;FeatUserModule</title>
<path fill="none" stroke="black" d="M442.44,-122.02C442.44,-139.37 442.44,-163 442.44,-163 442.44,-163 611.71,-163 611.71,-163"/>
<polygon fill="black" stroke="black" points="611.71,-166.5 621.71,-163 611.71,-159.5 611.71,-166.5"/>
</g>
<!-- ViewUserEditComponent -->
<g id="node13" class="node">
<title>ViewUserEditComponent</title>
<polygon fill="#ffffb3" stroke="black" points="1585.91,-122 1424.09,-122 1424.09,-86 1585.91,-86 1585.91,-122"/>
<text text-anchor="middle" x="1505" y="-99.8" font-family="Times,serif" font-size="14.00">ViewUserEditComponent</text>
</g>
<!-- ViewsModule -->
<g id="node15" class="node">
<title>ViewsModule</title>
<polygon fill="#8dd3c7" stroke="black" points="1373.81,-187 1370.81,-191 1349.81,-191 1346.81,-187 1278.19,-187 1278.19,-151 1373.81,-151 1373.81,-187"/>
<text text-anchor="middle" x="1326" y="-164.8" font-family="Times,serif" font-size="14.00">ViewsModule</text>
</g>
<!-- ViewUserEditComponent&#45;&gt;ViewsModule -->
<g id="edge11" class="edge">
<title>ViewUserEditComponent&#45;&gt;ViewsModule</title>
<path fill="none" stroke="black" d="M1465.88,-122.11C1465.88,-141.34 1465.88,-169 1465.88,-169 1465.88,-169 1383.75,-169 1383.75,-169"/>
<polygon fill="black" stroke="black" points="1383.75,-165.5 1373.75,-169 1383.75,-172.5 1383.75,-165.5"/>
</g>
<!-- ViewUserListComponent -->
<g id="node14" class="node">
<title>ViewUserListComponent</title>
<polygon fill="#ffffb3" stroke="black" points="1405.86,-122 1246.14,-122 1246.14,-86 1405.86,-86 1405.86,-122"/>
<text text-anchor="middle" x="1326" y="-99.8" font-family="Times,serif" font-size="14.00">ViewUserListComponent</text>
</g>
<!-- ViewUserListComponent&#45;&gt;ViewsModule -->
<g id="edge12" class="edge">
<title>ViewUserListComponent&#45;&gt;ViewsModule</title>
<path fill="none" stroke="black" d="M1326,-122.11C1326,-122.11 1326,-140.99 1326,-140.99"/>
<polygon fill="black" stroke="black" points="1322.5,-140.99 1326,-150.99 1329.5,-140.99 1322.5,-140.99"/>
</g>
<!-- ViewUserEditComponent  -->
<g id="node17" class="node">
<title>ViewUserEditComponent </title>
<polygon fill="#fb8072" stroke="black" points="1507.41,-252 1342.59,-252 1342.59,-216 1507.41,-216 1507.41,-252"/>
<text text-anchor="middle" x="1425" y="-229.8" font-family="Times,serif" font-size="14.00">ViewUserEditComponent </text>
</g>
<!-- ViewsModule&#45;&gt;ViewUserEditComponent  -->
<g id="edge14" class="edge">
<title>ViewsModule&#45;&gt;ViewUserEditComponent </title>
<path fill="none" stroke="black" stroke-dasharray="5,2" d="M1358.1,-187.11C1358.1,-187.11 1358.1,-205.99 1358.1,-205.99"/>
<polygon fill="black" stroke="black" points="1354.6,-205.99 1358.1,-215.99 1361.6,-205.99 1354.6,-205.99"/>
</g>
<!-- ViewUserListComponent  -->
<g id="node18" class="node">
<title>ViewUserListComponent </title>
<polygon fill="#fb8072" stroke="black" points="1324.86,-252 1161.14,-252 1161.14,-216 1324.86,-216 1324.86,-252"/>
<text text-anchor="middle" x="1243" y="-229.8" font-family="Times,serif" font-size="14.00">ViewUserListComponent </text>
</g>
<!-- ViewsModule&#45;&gt;ViewUserListComponent  -->
<g id="edge15" class="edge">
<title>ViewsModule&#45;&gt;ViewUserListComponent </title>
<path fill="none" stroke="black" stroke-dasharray="5,2" d="M1301.51,-187.11C1301.51,-187.11 1301.51,-205.99 1301.51,-205.99"/>
<polygon fill="black" stroke="black" points="1298.01,-205.99 1301.51,-215.99 1305.01,-205.99 1298.01,-205.99"/>
</g>
<!-- ViewsRoutingModule -->
<g id="node16" class="node">
<title>ViewsRoutingModule</title>
<polygon fill="#8dd3c7" stroke="black" points="1222.43,-122 1219.43,-126 1198.43,-126 1195.43,-122 1081.57,-122 1081.57,-86 1222.43,-86 1222.43,-122"/>
<text text-anchor="middle" x="1152" y="-99.8" font-family="Times,serif" font-size="14.00">ViewsRoutingModule</text>
</g>
<!-- ViewsRoutingModule&#45;&gt;ViewsModule -->
<g id="edge13" class="edge">
<title>ViewsRoutingModule&#45;&gt;ViewsModule</title>
<path fill="none" stroke="black" d="M1191.77,-122.29C1191.77,-144.21 1191.77,-178 1191.77,-178 1191.77,-178 1268.3,-178 1268.3,-178"/>
<polygon fill="black" stroke="black" points="1268.3,-181.5 1278.3,-178 1268.3,-174.5 1268.3,-181.5"/>
</g>
</g>
</svg>
